<svg width="254" height="165" viewBox="0 0 254 165" fill="none" xmlns="http://www.w3.org/2000/svg">
<path d="M0 53.323C0 39.783 10.9763 28.8067 24.5163 28.8067H105.114C113.068 28.8067 119.517 22.3581 119.517 14.4033C119.517 6.44859 125.966 0 133.92 0H214.518C228.058 0 239.034 10.9763 239.034 24.5163V139.743C239.034 153.283 228.058 164.259 214.518 164.259H24.5163C10.9763 164.259 0 153.283 0 139.743V53.323Z" fill="#FFE0AD"/>
<path d="M7.96776 65.453C7.96776 51.913 18.9441 40.9366 32.4841 40.9366H117.436C124.678 40.9366 130.549 35.0655 130.549 27.8231C130.549 20.5808 136.421 14.7097 143.663 14.7097H228.615C242.155 14.7097 253.131 25.686 253.131 39.226V139.743C253.131 153.283 242.155 164.259 228.615 164.259H32.4841C18.9441 164.259 7.96776 153.283 7.96776 139.743V65.453Z" fill="#FFEAC6"/>
</svg>
