<svg width="187" height="186" viewBox="0 0 187 186" fill="none" xmlns="http://www.w3.org/2000/svg">
<path d="M180.416 92.9962C183.304 89.6511 185.328 85.6557 186.312 81.3565C187.296 77.0573 187.211 72.5843 186.063 68.3253C184.916 64.0664 182.741 60.1503 179.728 56.9166C176.714 53.6829 172.953 51.2295 168.77 49.769C169.59 45.4356 169.334 40.9688 168.025 36.756C166.716 32.5433 164.393 28.7119 161.258 25.5942C158.123 22.4765 154.271 20.1667 150.036 18.8652C145.8 17.5636 141.309 17.3097 136.953 18.1254C135.485 13.9642 133.019 10.2221 129.768 7.22392C126.517 4.22579 122.579 2.06229 118.297 0.921249C114.014 -0.21979 109.517 -0.303874 105.194 0.676298C100.872 1.65647 96.855 3.67127 93.4929 6.54577C90.1298 3.67325 86.1129 1.66026 81.7907 0.681446C77.4684 -0.297372 72.9712 -0.212459 68.6894 0.928814C64.4076 2.07009 60.4704 4.23325 57.2193 7.23066C53.9683 10.2281 51.5016 13.9692 50.0333 18.1295C45.6769 17.3151 41.1865 17.5701 36.9517 18.8725C32.7168 20.1749 28.8654 22.4853 25.7315 25.6033C22.5975 28.7213 20.2757 32.5527 18.9674 36.7652C17.659 40.9777 17.4038 45.4442 18.2237 49.777C14.041 51.2375 10.2798 53.691 7.26624 56.9247C4.25272 60.1583 2.07792 64.0745 0.930507 68.3334C-0.216902 72.5923 -0.302283 77.0654 0.681797 81.3646C1.66588 85.6637 3.68972 89.6592 6.57769 93.0042C3.68884 96.3492 1.66438 100.345 0.680016 104.645C-0.304344 108.944 -0.218888 113.418 0.929023 117.677C2.07694 121.936 4.25258 125.853 7.26713 129.086C10.2817 132.319 14.0441 134.772 18.2277 136.231C17.4071 140.564 17.6621 145.031 18.9706 149.244C20.2791 153.457 22.6015 157.288 25.7362 160.406C28.871 163.523 32.7233 165.833 36.9589 167.134C41.1944 168.435 45.6852 168.688 50.0414 167.871C51.5097 172.031 53.9764 175.772 57.2274 178.77C60.4785 181.767 64.4157 183.93 68.6975 185.072C72.9793 186.213 77.4764 186.298 81.7987 185.319C86.121 184.34 90.138 182.327 93.501 179.455C96.864 182.328 100.881 184.342 105.204 185.321C109.527 186.3 114.024 186.215 118.306 185.073C122.589 183.931 126.526 181.767 129.777 178.769C133.028 175.77 135.494 172.028 136.961 167.867C141.317 168.683 145.808 168.429 150.043 167.128C154.279 165.826 158.131 163.516 161.266 160.398C164.4 157.281 166.723 153.449 168.031 149.236C169.34 145.023 169.595 140.557 168.774 136.223C172.957 134.763 176.719 132.31 179.732 129.076C182.746 125.842 184.921 121.926 186.068 117.667C187.215 113.407 187.3 108.934 186.315 104.635C185.33 100.336 183.305 96.3406 180.416 92.9962Z" fill="#18C07A"/>
<path d="M76.7132 128.497L50.7306 102.669C49.7445 101.687 49.1907 100.356 49.1907 98.9675C49.1907 97.5793 49.7445 96.2478 50.7306 95.2654L53.8873 92.1216C54.875 91.1408 56.2135 90.59 57.6092 90.59C59.0048 90.59 60.3435 91.1408 61.3311 92.1216L80.2183 110.896L124.699 63.8799C125.656 62.8697 126.977 62.2786 128.372 62.2363C129.767 62.194 131.122 62.7039 132.139 63.6542L135.381 66.6972C136.397 67.6493 136.993 68.9641 137.035 70.3525C137.078 71.7409 136.564 73.0892 135.608 74.1012L84.2827 128.38C83.7995 128.892 83.2176 129.303 82.5717 129.587C81.9257 129.871 81.229 130.023 80.5229 130.034C79.8167 130.045 79.1155 129.914 78.4611 129.65C77.8066 129.386 77.2122 128.994 76.7132 128.497Z" fill="white"/>
</svg>
