<svg width="20" height="20" viewBox="0 0 20 20" fill="none" xmlns="http://www.w3.org/2000/svg">
<path d="M3.33337 6.66667C3.33337 4.30965 3.33337 3.13114 4.17022 2.39891C5.00705 1.66667 6.35392 1.66667 9.04762 1.66667H10.9525C13.6461 1.66667 14.993 1.66667 15.8299 2.39891C16.6667 3.13114 16.6667 4.30965 16.6667 6.66667V14.1667H3.33337V6.66667Z" stroke="#141B34" stroke-width="1.5" stroke-linejoin="round"/>
<path d="M2.5 14.1667H17.5" stroke="#141B34" stroke-width="1.5" stroke-linecap="round"/>
<path d="M8.9156 4.63823C9.94077 4.49131 11.6395 4.55008 10.2336 5.96055C8.47627 7.72363 5.84033 11.6907 8.9156 10.3684C11.9909 9.04616 13.3091 9.92766 11.9911 11.25" stroke="#141B34" stroke-width="1.5" stroke-linecap="round" stroke-linejoin="round"/>
<path d="M10 14.1667V17.5" stroke="#141B34" stroke-width="1.5" stroke-linecap="round"/>
<path d="M4.16663 18.3333L6.66663 14.1667" stroke="#141B34" stroke-width="1.5" stroke-linecap="round"/>
<path d="M15.8334 18.3333L13.3334 14.1667" stroke="#141B34" stroke-width="1.5" stroke-linecap="round"/>
</svg>
